<?xml version="1.0" encoding="UTF-8" standalone="no"?>
<svg width="20px" height="20px" viewBox="0 0 20 20" version="1.1" xmlns="http://www.w3.org/2000/svg" xmlns:xlink="http://www.w3.org/1999/xlink" xmlns:sketch="http://www.bohemiancoding.com/sketch/ns">
    <!-- Generator: Sketch 3.3.3 (12081) - http://www.bohemiancoding.com/sketch -->
    <title>dribbble :hover</title>
    <desc>Created with Sketch.</desc>
    <defs></defs>
    <g id="Welcome" stroke="none" stroke-width="1" fill="none" fill-rule="evenodd" sketch:type="MSPage">
        <g id="Desktop-Copy-2" sketch:type="MSArtboardGroup" transform="translate(-250.000000, -111.000000)">
            <g id="PresenceLinks" sketch:type="MSLayerGroup" transform="translate(20.000000, 110.000000)">
                <g id="dribble" transform="translate(230.000000, 1.000000)" sketch:type="MSShapeGroup">
                    <g id="dribbble-:hover">
                        <path d="M0,9.60000038 C0,4.29806631 4.47715241,0 10.0000004,0 C15.5228484,0 20.0000008,4.29806631 20.0000008,9.60000038 C20.0000008,14.9019345 15.5228484,19.2000008 10.0000004,19.2000008 C4.47715241,19.2000008 0,14.9019345 0,9.60000038 Z" id="Dribbble" fill="#EA4C89"></path>
                        <path d="M12.1075615,12.4886639 C12.0697566,12.2713761 11.8695127,11.2149078 11.3790248,9.91750283 C12.5880493,9.73159063 13.6356103,10.050498 13.7129274,10.0748492 C13.5468298,11.077698 12.9490249,11.9426346 12.1075615,12.4886639 L12.1075615,12.4886639 Z M10.0143906,13.1028298 C9.10780524,13.1028298 8.27609789,12.7930542 7.62780518,12.2779322 C7.67707348,12.3163322 7.71219543,12.3409176 7.71219543,12.3409176 C7.71219543,12.3409176 8.42951253,10.836059 10.6519516,10.0924102 C10.6604882,10.0896004 10.6687809,10.0870248 10.6765858,10.0846833 C11.2039029,11.40082 11.4219517,12.5027127 11.4765858,12.8176395 C11.0278053,13.0009761 10.5329272,13.1028298 10.0143906,13.1028298 L10.0143906,13.1028298 Z M6.26756122,9.50306379 C6.26756122,9.46466379 6.26926854,9.42720037 6.27048805,9.38973696 C6.33658562,9.39067354 8.18829301,9.43118086 10.1173175,8.87648816 C10.2243907,9.07832231 10.3270736,9.28366866 10.4212199,9.48854672 C10.3707321,9.50165891 10.3226833,9.51594184 10.2736589,9.53162965 C8.25195155,10.159376 7.22634175,11.9068102 7.22634175,11.9068102 C7.22634175,11.9068102 7.22756126,11.907981 7.22756126,11.9084493 C6.63097587,11.2708687 6.26756122,10.4277077 6.26756122,9.50306379 L6.26756122,9.50306379 Z M8.41561009,6.24842952 C8.46561009,6.31211732 9.15829305,7.21475151 9.80682966,8.3220296 C8.0080491,8.78119059 6.44609782,8.76316132 6.34804903,8.76128815 C6.59170758,7.64651738 7.3704881,6.72234173 8.41561009,6.24842952 L8.41561009,6.24842952 Z M9.11658573,6.00842951 C9.11658573,6.00913195 9.11609792,6.00936609 9.11609792,6.00936609 C9.11609792,6.00936609 9.11146378,6.01030268 9.10439061,6.01170756 C9.10853695,6.01053682 9.11243939,6.01006853 9.11658573,6.00842951 L9.11658573,6.00842951 Z M12.4890249,6.80218564 C12.4795127,6.81623442 11.946098,7.59641006 10.5314638,8.10567837 C9.89121991,6.97498564 9.18731744,6.07680024 9.13121988,6.00561975 C9.41439062,5.94005877 9.71048819,5.90400023 10.0143906,5.90400023 C10.9624395,5.90400023 11.8285371,6.24398074 12.4890249,6.80218564 L12.4890249,6.80218564 Z M13.7597566,9.46747355 C13.7051225,9.45600038 12.4375615,9.19375646 11.1497565,9.34946379 C11.1239029,9.2878833 11.0973175,9.22583451 11.0695126,9.16378573 C10.9912199,8.98770767 10.9073175,8.81326864 10.8204882,8.64140522 C12.2992688,8.06119056 12.8997566,7.22692712 12.9065859,7.21732712 C13.4334152,7.83008812 13.7502444,8.61330766 13.7597566,9.46747355 L13.7597566,9.46747355 Z M14.3112201,8.65475156 C14.2541469,8.38431253 14.1673176,8.11738569 14.0553664,7.86286861 C13.9456103,7.61256616 13.8102445,7.37186371 13.6519518,7.14684906 C13.4948786,6.92370759 13.3141469,6.71414661 13.116342,6.52355148 C12.9175615,6.33248806 12.7000005,6.1594539 12.4670737,6.00913195 C12.2331712,5.85623438 11.9817078,5.72604901 11.7226834,5.62021486 C11.4575614,5.51320998 11.1792687,5.42938558 10.8975614,5.37482948 C10.6090248,5.31769777 10.3114638,5.28866362 10.0143906,5.28866362 C9.71731746,5.28866362 9.42000037,5.31769777 9.13073207,5.37482948 C8.84878084,5.42938558 8.57121985,5.51320998 8.30609789,5.62021486 C8.04707349,5.72604901 7.79561007,5.85623438 7.56097591,6.00913195 C7.32804907,6.1594539 7.11097589,6.33248806 6.91195149,6.52355148 C6.7136588,6.71414661 6.5339027,6.92370759 6.37682952,7.14684906 C6.21829293,7.37186371 6.08195146,7.61256616 5.97219536,7.86286861 C5.86048804,8.11738569 5.77390267,8.38431253 5.71609779,8.65475156 C5.6573173,8.9317467 5.6275612,9.21740524 5.6275612,9.50306379 C5.6275612,9.78919063 5.6573173,10.0748492 5.71609779,10.3523126 C5.77390267,10.6229858 5.86048804,10.8896785 5.97219536,11.1439614 C6.08195146,11.3940297 6.21829293,11.6354346 6.37682952,11.8602151 C6.5339027,12.0835907 6.7136588,12.2926834 6.91195149,12.4837468 C7.11097589,12.6741078 7.32804907,12.847142 7.56097591,12.9976981 C7.79561007,13.1498932 8.04707349,13.280781 8.30609789,13.386381 C8.57121985,13.4940883 8.84878084,13.5762737 9.13073207,13.6320005 C9.42000037,13.6891323 9.71731746,13.7179323 10.0143906,13.7179323 C10.3114638,13.7179323 10.6090248,13.6891323 10.8975614,13.6320005 C11.1792687,13.5762737 11.4575614,13.4940883 11.7226834,13.386381 C11.9817078,13.280781 12.2331712,13.1498932 12.4670737,12.9976981 C12.7000005,12.847142 12.9175615,12.6741078 13.116342,12.4837468 C13.3141469,12.2926834 13.4948786,12.0835907 13.6519518,11.8602151 C13.8102445,11.6354346 13.9456103,11.3940297 14.0553664,11.1439614 C14.1673176,10.8896785 14.2541469,10.6229858 14.3112201,10.3523126 C14.371464,10.0748492 14.4012201,9.78919063 14.4012201,9.50306379 C14.4012201,9.21740524 14.371464,8.9317467 14.3112201,8.65475156 L14.3112201,8.65475156 Z" id="Fill-13" fill="#FFFFFF"></path>
                    </g>
                </g>
            </g>
        </g>
    </g>
</svg>