<?xml version="1.0" encoding="UTF-8" standalone="no"?>
<svg width="20px" height="20px" viewBox="0 0 20 20" version="1.1" xmlns="http://www.w3.org/2000/svg" xmlns:xlink="http://www.w3.org/1999/xlink" xmlns:sketch="http://www.bohemiancoding.com/sketch/ns">
    <!-- Generator: Sketch 3.3.3 (12081) - http://www.bohemiancoding.com/sketch -->
    <title>Fill 1 + Fill 3</title>
    <desc>Created with Sketch.</desc>
    <defs></defs>
    <g id="Welcome" stroke="none" stroke-width="1" fill="none" fill-rule="evenodd" sketch:type="MSPage">
        <g id="Desktop-Copy-2" sketch:type="MSArtboardGroup" transform="translate(-474.000000, -111.000000)">
            <g id="PresenceLinks" sketch:type="MSLayerGroup" transform="translate(20.000000, 110.000000)">
                <g id="productHunt" transform="translate(454.000000, 1.000000)" sketch:type="MSShapeGroup">
                    <g id="Fill-1-+-Fill-3">
                        <g>
                            <path d="M20,10 C20,15.5228333 15.5228333,20 10,20 C4.47716667,20 0,15.5228333 0,10 C0,4.47716667 4.47716667,0 10,0 C15.5228333,0 20,4.47716667 20,10" id="Fill-1" fill="#DA552F"></path>
                            <path d="M11.3333333,10 L11.3333333,10.0000833 L8.5,10.0000833 L8.5,7.00008333 L11.3333333,7.00008333 L11.3333333,7 C12.16175,7 12.8333333,7.67158333 12.8333333,8.5 C12.8333333,9.32841667 12.16175,10 11.3333333,10 M11.3333333,5 L11.3333333,5.00008333 L6.5,5 L6.5,15 L8.5,15 L8.5,12.0000833 L11.3333333,12.0000833 L11.3333333,12 C13.2663333,12 14.8333333,10.433 14.8333333,8.5 C14.8333333,6.567 13.2663333,5 11.3333333,5" id="Fill-3" fill="#FFFFFF"></path>
                        </g>
                    </g>
                </g>
            </g>
        </g>
    </g>
</svg>